<?xml version="1.0"?>
<svg xmlns="http://www.w3.org/2000/svg" xmlns:xlink="http://www.w3.org/1999/xlink" xmlns:svgjs="http://svgjs.com/svgjs" version="1.1" width="512" height="512" x="0" y="0" viewBox="0 0 512 512" style="enable-background:new 0 0 512 512" xml:space="preserve" class=""><g>
<path xmlns="http://www.w3.org/2000/svg" style="" d="M53.333,85.333h405.333c29.455,0,53.333,23.878,53.333,53.333v234.667  c0,29.455-23.878,53.333-53.333,53.333H53.333C23.878,426.667,0,402.789,0,373.333V138.667C0,109.211,23.878,85.333,53.333,85.333z" fill="#00a082" data-original="#2196f3" class=""/>
<rect xmlns="http://www.w3.org/2000/svg" y="149.333" style="" width="512" height="85.333" fill="#000000" data-original="#455a64" class=""/>
<g xmlns="http://www.w3.org/2000/svg">
	<path style="" d="M160,320H74.667C68.776,320,64,315.224,64,309.333s4.776-10.667,10.667-10.667H160   c5.891,0,10.667,4.776,10.667,10.667S165.891,320,160,320z" fill="#ffffff" data-original="#fafafa" class=""/>
	<path style="" d="M224,362.667H74.667C68.776,362.667,64,357.891,64,352c0-5.891,4.776-10.667,10.667-10.667H224   c5.891,0,10.667,4.776,10.667,10.667C234.667,357.891,229.891,362.667,224,362.667z" fill="#ffffff" data-original="#fafafa" class=""/>
</g>
<g xmlns="http://www.w3.org/2000/svg">
</g>
<g xmlns="http://www.w3.org/2000/svg">
</g>
<g xmlns="http://www.w3.org/2000/svg">
</g>
<g xmlns="http://www.w3.org/2000/svg">
</g>
<g xmlns="http://www.w3.org/2000/svg">
</g>
<g xmlns="http://www.w3.org/2000/svg">
</g>
<g xmlns="http://www.w3.org/2000/svg">
</g>
<g xmlns="http://www.w3.org/2000/svg">
</g>
<g xmlns="http://www.w3.org/2000/svg">
</g>
<g xmlns="http://www.w3.org/2000/svg">
</g>
<g xmlns="http://www.w3.org/2000/svg">
</g>
<g xmlns="http://www.w3.org/2000/svg">
</g>
<g xmlns="http://www.w3.org/2000/svg">
</g>
<g xmlns="http://www.w3.org/2000/svg">
</g>
<g xmlns="http://www.w3.org/2000/svg">
</g>
</g></svg>
