<?xml version="1.0"?>
<svg xmlns="http://www.w3.org/2000/svg" xmlns:xlink="http://www.w3.org/1999/xlink" xmlns:svgjs="http://svgjs.com/svgjs" version="1.1" width="512" height="512" x="0" y="0" viewBox="0 0 512 512" style="enable-background:new 0 0 512 512" xml:space="preserve" class=""><g><g xmlns="http://www.w3.org/2000/svg"><path d="m464.32 394.519-53.32-35.546v-147.358c0-25.902-6.565-51.607-18.988-74.337l-61.512-112.495c-11.347-20.762-35.721-29.956-57.947-21.864v-.049c-6.368 2.318-11.94 5.894-16.552 10.342-4.615-4.446-10.186-8.025-16.553-10.342v.048c-22.23-8.09-46.601 1.102-57.948 21.863l-61.511 112.497c-12.423 22.73-18.989 48.435-18.989 74.337v147.357l-53.32 35.547c-4.174 2.783-6.68 7.465-6.68 12.481v90c0 8.284 6.716 15 15 15h120c3.978 0 7.793-1.58 10.606-4.394l50.711-50.711c7.386-7.386 13.64-15.601 18.682-24.433 5.042 8.832 11.297 17.047 18.682 24.433l50.711 50.711c2.814 2.814 6.629 4.394 10.608 4.394h120c8.284 0 15-6.716 15-15v-90c0-5.016-2.507-9.698-6.68-12.481zm-223.32-18.941c0 22.704-8.841 44.05-24.896 60.104l-46.317 46.318h-98.787v-66.973l53.32-35.547c4.173-2.781 6.68-7.465 6.68-12.48v-155.385c0-20.89 5.295-41.619 15.313-59.949l61.512-112.546c4.183-7.653 13.166-11.043 21.361-8.059 8.949 3.257 13.683 13.224 10.552 22.217l-40.372 116.001c-3.629 10.427-4.899 21.577-3.739 32.545-8.985 8.233-14.627 20.058-14.627 33.176v80c0 8.284 6.716 15 15 15s15-6.716 15-15v-80c0-8.271 6.729-15 15-15s15 6.729 15 15zm15-174.083c-7.968-7.142-18.483-11.495-30-11.495-.208 0-.415.001-.621.004.321-3.695 1.097-7.349 2.32-10.864l28.301-81.315 28.3 81.315c1.228 3.525 2.004 7.175 2.324 10.864-.208-.003-.415-.004-.624-.004-11.517 0-22.033 4.353-30 11.495zm185 280.505h-98.787l-46.317-46.317c-16.054-16.055-24.896-37.401-24.896-60.105v-140.578c0-8.271 6.729-15 15-15s15 6.729 15 15v80c0 8.284 6.716 15 15 15s15-6.716 15-15v-80c0-13.117-5.643-24.942-14.626-33.175 1.164-10.969-.099-22.083-3.741-32.547l-40.371-116c-3.131-8.993 1.604-18.96 10.553-22.218 8.195-2.981 17.178.407 21.361 8.061l61.512 112.545c10.017 18.33 15.312 39.061 15.312 59.949v155.385c0 5.016 2.507 9.699 6.68 12.48l53.32 35.547z" fill="#00a082" data-original="#000000" style="" class=""/></g></g></svg>
