<?xml version="1.0"?>
<svg xmlns="http://www.w3.org/2000/svg" xmlns:xlink="http://www.w3.org/1999/xlink" xmlns:svgjs="http://svgjs.com/svgjs" version="1.1" width="512" height="512" x="0" y="0" viewBox="0 0 512.046 512.046" style="enable-background:new 0 0 512 512" xml:space="preserve" class=""><g><g xmlns="http://www.w3.org/2000/svg" fill="rgb(0,0,0)"><path d="m183.71 204.878c-1.952 1.061 3.596-1.738-32.559 16.339-5 2.501-8.106 7.526-8.106 13.117v88c0 8.087 6.579 14.666 14.666 14.666h158.121l-38.909-38.909c-6.294 3.135-13.382 4.909-20.878 4.909-34.849 0-57.569-36.805-42.091-67.878z" fill="#00a082" data-original="#000000" style="" class=""/><path d="m177.951 156.693c4.166-20.343 22.204-35.693 43.76-35.693h68.668c24.629 0 44.666 20.037 44.666 44.666 0 5.591 3.106 10.616 8.107 13.117l31.202 15.602c15.229 7.615 24.69 22.923 24.69 39.949v88c0 15.063-7.503 28.399-18.96 36.493l67.065 67.065c41.948-47.009 64.895-106.771 64.895-169.892 0-140.96-115.049-256-256-256-63.12 0-122.881 22.947-169.891 64.895z" fill="#00a082" data-original="#000000" style="" class=""/><circle cx="256.045" cy="256" r="17" fill="#00a082" data-original="#000000" style="" class=""/><path d="m345.833 367h-188.122c-24.629 0-44.666-20.037-44.666-44.666v-88c0-17.026 9.461-32.334 24.689-39.949l23.655-11.827-96.45-96.45c-89.766 100.596-86.596 253.816 10.292 350.705 96.879 96.879 250.097 100.069 350.705 10.292z" fill="#00a082" data-original="#000000" style="" class=""/><path d="m369.045 322.334v-88c0-5.591-3.106-10.616-8.107-13.117l-31.202-15.602c-15.229-7.615-24.69-22.923-24.69-39.949 0-8.087-6.579-14.666-14.666-14.666h-68.668c-8.087 0-14.666 6.579-14.666 14.666 0 5.906-1.162 11.594-3.284 16.837l31.406 31.406c6.294-3.135 13.382-4.909 20.878-4.909 34.849 0 57.569 36.805 42.091 67.878l59.694 59.694c6.424-1.557 11.214-7.342 11.214-14.238z" fill="#00a082" data-original="#000000" style="" class=""/></g></g></svg>
